<svg width="200" height="140" viewBox="0 0 200 140" fill="none" xmlns="http://www.w3.org/2000/svg">
<g opacity="0.65">
<path d="M118.348 26.0508C118.102 26.0508 117.869 26.0169 117.649 25.9492C117.438 25.873 117.252 25.7715 117.091 25.6445C116.938 25.5091 116.816 25.3525 116.723 25.1748C116.63 24.9971 116.583 24.8024 116.583 24.5908C116.583 24.2354 116.723 23.9476 117.002 23.7275C117.29 23.5075 117.671 23.3975 118.145 23.3975C118.365 23.3975 118.576 23.4398 118.779 23.5244C118.982 23.6006 119.16 23.7064 119.312 23.8418C119.473 23.9772 119.6 24.138 119.693 24.3242C119.786 24.502 119.833 24.6882 119.833 24.8828C119.833 25.2467 119.698 25.5345 119.427 25.7461C119.164 25.9492 118.805 26.0508 118.348 26.0508ZM116.608 29.9229C116.608 29.6266 116.735 29.3854 116.989 29.1992C117.252 29.0046 117.594 28.9072 118.018 28.9072C118.779 28.9072 119.186 29.1696 119.236 29.6943C119.27 30.0583 119.304 30.4688 119.338 30.9258C119.38 31.3828 119.418 31.8695 119.452 32.3857C119.494 32.8936 119.528 33.4225 119.554 33.9727C119.588 34.5143 119.617 35.0518 119.643 35.585C119.668 36.1097 119.689 36.6175 119.706 37.1084C119.723 37.5993 119.731 38.0479 119.731 38.4541C119.731 38.8773 119.579 39.1947 119.274 39.4062C118.978 39.6178 118.542 39.7236 117.967 39.7236C117.704 39.7236 117.497 39.6602 117.345 39.5332C117.201 39.4147 117.129 39.237 117.129 39C117.129 37.832 117.099 36.7402 117.04 35.7246C116.989 34.7005 116.93 33.7907 116.862 32.9951C116.803 32.1995 116.744 31.5394 116.685 31.0146C116.634 30.4814 116.608 30.1175 116.608 29.9229Z" fill="black"/>
<path d="M123.261 24.3369C123.261 23.8883 123.388 23.5752 123.642 23.3975C123.896 23.2113 124.314 23.1182 124.898 23.1182C125.11 23.1182 125.288 23.1393 125.432 23.1816C125.584 23.2155 125.711 23.2832 125.812 23.3848C125.923 23.4863 126.007 23.6217 126.066 23.791C126.134 23.9518 126.189 24.1592 126.231 24.4131C126.333 25.2002 126.443 26.0127 126.562 26.8506C126.688 27.6885 126.82 28.5306 126.955 29.377C127.006 29.7578 127.205 29.9482 127.552 29.9482C127.645 29.9482 127.797 29.9398 128.009 29.9229C128.229 29.8975 128.487 29.8721 128.783 29.8467C129.079 29.8128 129.397 29.779 129.735 29.7451C130.082 29.7113 130.425 29.6816 130.764 29.6562C131.111 29.6224 131.437 29.597 131.741 29.5801C132.054 29.5547 132.329 29.542 132.566 29.542C132.753 29.542 132.901 29.5801 133.011 29.6562C133.121 29.724 133.205 29.8171 133.265 29.9355C133.332 30.0456 133.375 30.1725 133.392 30.3164C133.417 30.4518 133.43 30.5915 133.43 30.7354C133.43 30.8623 133.404 30.9935 133.354 31.1289C133.311 31.2643 133.248 31.387 133.163 31.4971C133.087 31.5986 132.99 31.6833 132.871 31.751C132.753 31.8187 132.617 31.8525 132.465 31.8525C131.729 31.8525 130.984 31.8779 130.23 31.9287C129.486 31.971 128.741 32.0303 127.996 32.1064C127.615 32.1572 127.425 32.3477 127.425 32.6777C127.425 32.7031 127.429 32.737 127.438 32.7793C127.446 32.8132 127.45 32.8428 127.45 32.8682C127.552 33.6045 127.645 34.2943 127.729 34.9375C127.823 35.5807 127.899 36.1562 127.958 36.6641C128.026 37.1634 128.076 37.5824 128.11 37.9209C128.153 38.251 128.174 38.471 128.174 38.5811C128.174 38.8857 128.144 39.1396 128.085 39.3428C128.026 39.5544 127.928 39.7236 127.793 39.8506C127.658 39.986 127.476 40.0791 127.247 40.1299C127.027 40.1891 126.748 40.2188 126.409 40.2188C126.088 40.2188 125.851 40.1426 125.698 39.9902C125.546 39.8379 125.461 39.6051 125.444 39.292C125.394 38.2933 125.313 37.2904 125.203 36.2832C125.093 35.2676 124.966 34.2562 124.822 33.249C124.746 32.8851 124.556 32.7031 124.251 32.7031C124.226 32.7031 124.196 32.7074 124.162 32.7158C124.128 32.7243 124.099 32.7285 124.073 32.7285C123.549 32.847 123.053 32.9655 122.588 33.084C122.122 33.2025 121.687 33.3294 121.28 33.4648C121.052 33.541 120.849 33.596 120.671 33.6299C120.493 33.6553 120.332 33.668 120.188 33.668C119.994 33.668 119.85 33.5833 119.757 33.4141C119.664 33.2363 119.617 33.0163 119.617 32.7539C119.617 32.6608 119.626 32.555 119.643 32.4365C119.66 32.3096 119.693 32.1868 119.744 32.0684C119.786 31.9414 119.854 31.8271 119.947 31.7256C120.032 31.6156 120.15 31.5267 120.303 31.459C120.658 31.3151 121.132 31.167 121.725 31.0146C122.317 30.8538 122.986 30.7057 123.73 30.5703C123.9 30.528 124.031 30.4603 124.124 30.3672C124.226 30.2656 124.276 30.1175 124.276 29.9229C124.276 29.8805 124.276 29.8382 124.276 29.7959C124.276 29.7451 124.268 29.6943 124.251 29.6436C124.116 28.8649 123.984 28.1582 123.857 27.5234C123.739 26.8802 123.633 26.3301 123.54 25.873C123.455 25.416 123.388 25.0563 123.337 24.7939C123.286 24.5316 123.261 24.3792 123.261 24.3369Z" fill="black"/>
<path d="M137.937 26.6729C137.937 26.766 137.873 26.986 137.746 27.333C137.619 27.68 137.45 28.0863 137.238 28.5518C137.035 29.0173 136.798 29.5081 136.527 30.0244C136.257 30.5407 135.981 31.0146 135.702 31.4463C135.423 31.8779 135.148 32.2376 134.877 32.5254C134.615 32.8047 134.378 32.9443 134.166 32.9443C134.064 32.9443 133.938 32.9147 133.785 32.8555C133.633 32.7962 133.485 32.7243 133.341 32.6396C133.205 32.5465 133.087 32.4492 132.985 32.3477C132.884 32.2376 132.833 32.1318 132.833 32.0303C132.833 31.9456 132.918 31.7383 133.087 31.4082C133.265 31.0697 133.48 30.638 133.734 30.1133C133.988 29.5801 134.259 28.9707 134.547 28.2852C134.835 27.5996 135.089 26.8633 135.309 26.0762C135.359 25.9069 135.431 25.7757 135.524 25.6826C135.618 25.5811 135.744 25.5303 135.905 25.5303C136.058 25.5303 136.248 25.5641 136.477 25.6318C136.705 25.6911 136.925 25.7757 137.137 25.8857C137.357 25.9873 137.543 26.1058 137.695 26.2412C137.856 26.3766 137.937 26.5205 137.937 26.6729Z" fill="black"/>
<path d="M144.03 27.9805C144.597 27.9805 145.181 28.0566 145.782 28.209C146.383 28.3529 146.933 28.5433 147.433 28.7803C147.932 29.0088 148.342 29.2669 148.664 29.5547C148.986 29.8424 149.146 30.1217 149.146 30.3926C149.146 30.528 149.087 30.6803 148.969 30.8496C148.85 31.0104 148.706 31.167 148.537 31.3193C148.368 31.4632 148.182 31.5859 147.979 31.6875C147.784 31.7806 147.61 31.8271 147.458 31.8271C147.255 31.8271 147.026 31.7425 146.772 31.5732C146.527 31.404 146.252 31.2178 145.947 31.0146C145.651 30.8031 145.325 30.6126 144.97 30.4434C144.614 30.2741 144.229 30.1895 143.814 30.1895C143.544 30.1895 143.319 30.2572 143.142 30.3926C142.972 30.5195 142.888 30.7015 142.888 30.9385C142.888 31.1501 142.989 31.3659 143.192 31.5859C143.396 31.7975 143.662 32.0176 143.992 32.2461C144.331 32.4746 144.712 32.7158 145.135 32.9697C145.558 33.2236 145.99 33.4945 146.43 33.7822C146.878 34.07 147.314 34.3831 147.737 34.7217C148.16 35.0602 148.537 35.4284 148.867 35.8262C149.206 36.224 149.477 36.6598 149.68 37.1338C149.883 37.5993 149.984 38.1071 149.984 38.6572C149.984 39.1312 149.9 39.5628 149.73 39.9521C149.561 40.3415 149.32 40.6758 149.007 40.9551C148.694 41.2344 148.321 41.4502 147.89 41.6025C147.458 41.7549 146.984 41.8311 146.468 41.8311C145.816 41.8311 145.215 41.7295 144.665 41.5264C144.115 41.3317 143.641 41.0609 143.243 40.7139C142.845 40.3669 142.532 39.9521 142.304 39.4697C142.084 38.9873 141.974 38.4583 141.974 37.8828C141.974 37.138 142.105 36.5964 142.367 36.2578C142.638 35.9193 143.061 35.75 143.637 35.75C143.992 35.75 144.276 35.8177 144.487 35.9531C144.699 36.0885 144.805 36.2536 144.805 36.4482C144.805 36.5498 144.788 36.6556 144.754 36.7656C144.72 36.8672 144.682 36.9772 144.64 37.0957C144.606 37.2057 144.572 37.3242 144.538 37.4512C144.513 37.5781 144.5 37.7051 144.5 37.832C144.5 38.0521 144.551 38.2637 144.652 38.4668C144.754 38.6699 144.889 38.8477 145.059 39C145.236 39.1608 145.439 39.2878 145.668 39.3809C145.896 39.474 146.138 39.5205 146.392 39.5205C147.069 39.5205 147.407 39.2412 147.407 38.6826C147.407 38.2425 147.234 37.8278 146.887 37.4385C146.54 37.0407 146.104 36.6556 145.579 36.2832C145.054 35.9023 144.487 35.5215 143.878 35.1406C143.277 34.7598 142.714 34.362 142.189 33.9473C141.665 33.5326 141.229 33.0924 140.882 32.627C140.535 32.153 140.361 31.641 140.361 31.0908C140.361 30.6338 140.454 30.2148 140.641 29.834C140.835 29.4531 141.098 29.1273 141.428 28.8564C141.758 28.5771 142.143 28.3613 142.583 28.209C143.032 28.0566 143.514 27.9805 144.03 27.9805Z" fill="black"/>
<path d="M155.532 32.0049C155.338 31.988 155.181 31.861 155.062 31.624C154.944 31.387 154.885 31.1247 154.885 30.8369C154.885 30.7015 154.897 30.5703 154.923 30.4434C154.94 30.3079 154.974 30.1895 155.024 30.0879C155.075 29.9863 155.139 29.9059 155.215 29.8467C155.291 29.779 155.38 29.7451 155.481 29.7451C155.795 29.7451 156.154 29.7367 156.561 29.7197C156.967 29.6943 157.403 29.6689 157.868 29.6436C158.105 29.6182 158.236 29.4785 158.262 29.2246C158.338 27.9974 158.444 26.9395 158.579 26.0508C158.715 25.1621 158.88 24.4131 159.074 23.8037C159.269 23.1859 159.489 22.6865 159.734 22.3057C159.988 21.9248 160.268 21.6328 160.572 21.4297C160.665 21.362 160.775 21.2943 160.902 21.2266C161.029 21.1504 161.148 21.1123 161.258 21.1123C161.469 21.1123 161.689 21.1673 161.918 21.2773C162.155 21.3789 162.371 21.5143 162.565 21.6836C162.769 21.8444 162.934 22.0306 163.061 22.2422C163.188 22.4453 163.251 22.6484 163.251 22.8516C163.251 22.9277 163.234 22.9912 163.2 23.042C163.166 23.0843 163.124 23.1266 163.073 23.1689C162.743 23.4144 162.451 23.6895 162.197 23.9941C161.943 24.2988 161.728 24.6712 161.55 25.1113C161.372 25.5514 161.224 26.0804 161.105 26.6982C160.987 27.3161 160.898 28.0609 160.839 28.9326C160.839 29.068 160.86 29.1696 160.902 29.2373C160.953 29.2965 161.042 29.3262 161.169 29.3262C161.499 29.3262 161.829 29.3008 162.159 29.25C162.498 29.1992 162.819 29.1484 163.124 29.0977C163.429 29.0384 163.716 28.9834 163.987 28.9326C164.258 28.8818 164.499 28.8564 164.711 28.8564C164.863 28.8564 164.973 28.9495 165.041 29.1357C165.117 29.3135 165.155 29.5335 165.155 29.7959C165.155 29.9482 165.143 30.1048 165.117 30.2656C165.092 30.4264 165.049 30.5703 164.99 30.6973C164.939 30.8242 164.872 30.9342 164.787 31.0273C164.702 31.112 164.597 31.1628 164.47 31.1797L161.093 31.5352C160.915 31.5605 160.805 31.6325 160.763 31.751C160.729 31.8695 160.712 32.0345 160.712 32.2461C160.712 34.1165 160.758 35.7246 160.852 37.0703C160.945 38.416 161.046 39.5459 161.156 40.46C161.275 41.3825 161.381 42.1061 161.474 42.6309C161.567 43.1641 161.613 43.5492 161.613 43.7861C161.613 43.9639 161.541 44.1247 161.397 44.2686C161.262 44.4124 161.084 44.5352 160.864 44.6367C160.653 44.7383 160.42 44.8145 160.166 44.8652C159.912 44.9245 159.675 44.9541 159.455 44.9541C159.243 44.9541 159.053 44.916 158.884 44.8398C158.723 44.7721 158.63 44.6536 158.604 44.4844C158.52 43.8919 158.448 43.2402 158.389 42.5293C158.329 41.8268 158.279 41.0439 158.236 40.1807C158.202 39.3258 158.177 38.3906 158.16 37.375C158.143 36.3509 158.135 35.2295 158.135 34.0107C158.135 33.6976 158.135 33.3929 158.135 33.0967C158.135 32.8005 158.143 32.5042 158.16 32.208C158.16 31.9541 158.021 31.8271 157.741 31.8271L155.532 32.0049Z" fill="black"/>
<path d="M171.465 29.5039C171.152 29.5039 170.877 29.5885 170.64 29.7578C170.403 29.9186 170.2 30.1471 170.03 30.4434C169.861 30.7311 169.721 31.0739 169.611 31.4717C169.501 31.861 169.412 32.2884 169.345 32.7539C169.277 33.2194 169.23 33.7061 169.205 34.2139C169.18 34.7217 169.167 35.2337 169.167 35.75C169.167 36.4271 169.192 37.0957 169.243 37.7559C169.302 38.4076 169.332 39.0127 169.332 39.5713C169.332 39.9352 169.197 40.2188 168.926 40.4219C168.655 40.6335 168.27 40.7393 167.771 40.7393C167.677 40.7393 167.572 40.7308 167.453 40.7139C167.335 40.6969 167.22 40.6631 167.11 40.6123C167.009 40.5615 166.916 40.4896 166.831 40.3965C166.755 40.3118 166.713 40.1934 166.704 40.041C166.628 39.2962 166.518 38.5345 166.374 37.7559C166.23 36.9772 166.048 36.2028 165.828 35.4326C165.617 34.654 165.358 33.8838 165.054 33.1221C164.757 32.3604 164.415 31.6156 164.025 30.8877C163.958 30.7607 163.898 30.6423 163.848 30.5322C163.805 30.4222 163.784 30.3164 163.784 30.2148C163.784 30.0879 163.839 29.9525 163.949 29.8086C164.068 29.6562 164.212 29.5166 164.381 29.3896C164.559 29.2627 164.749 29.1611 164.952 29.085C165.164 29.0003 165.367 28.958 165.562 28.958C165.883 28.958 166.167 29.1823 166.412 29.6309C166.658 30.071 166.886 30.7777 167.098 31.751C167.14 31.9202 167.174 32.0387 167.199 32.1064C167.225 32.1742 167.258 32.208 167.301 32.208C167.394 32.208 167.453 32.0641 167.479 31.7764C167.58 30.9723 167.754 30.2826 167.999 29.707C168.244 29.123 168.549 28.6449 168.913 28.2725C169.285 27.8916 169.709 27.6123 170.183 27.4346C170.665 27.2568 171.194 27.168 171.77 27.168C172.1 27.168 172.434 27.1976 172.772 27.2568C173.111 27.3161 173.416 27.4049 173.687 27.5234C173.957 27.6419 174.177 27.7858 174.347 27.9551C174.516 28.1243 174.601 28.3148 174.601 28.5264C174.601 28.6787 174.567 28.8607 174.499 29.0723C174.44 29.2754 174.359 29.4743 174.258 29.6689C174.156 29.8551 174.038 30.016 173.902 30.1514C173.775 30.2783 173.644 30.3418 173.509 30.3418C173.356 30.3418 173.208 30.2995 173.064 30.2148C172.921 30.1217 172.764 30.0244 172.595 29.9229C172.434 29.8213 172.26 29.7282 172.074 29.6436C171.896 29.5505 171.693 29.5039 171.465 29.5039Z" fill="black"/>
<path d="M184.604 36.2197C184.85 36.0081 185.091 35.9023 185.328 35.9023C185.464 35.9023 185.586 35.9362 185.696 36.0039C185.806 36.0716 185.929 36.1774 186.064 36.3213C186.191 36.516 186.28 36.6768 186.331 36.8037C186.39 36.9222 186.42 37.0407 186.42 37.1592C186.42 37.4131 186.293 37.6543 186.039 37.8828C185.633 38.2214 185.193 38.526 184.719 38.7969C184.245 39.0592 183.75 39.2835 183.233 39.4697C182.717 39.6559 182.184 39.7956 181.634 39.8887C181.084 39.9902 180.538 40.041 179.996 40.041C179.311 40.041 178.667 39.9521 178.066 39.7744C177.465 39.6051 176.928 39.3597 176.454 39.0381C175.989 38.7165 175.595 38.3314 175.273 37.8828C174.952 37.4258 174.723 36.9137 174.588 36.3467C174.512 36.1097 174.44 35.9574 174.372 35.8896C174.313 35.8135 174.211 35.7754 174.067 35.7754C173.754 35.7754 173.513 35.6992 173.344 35.5469C173.174 35.3945 173.09 35.1745 173.09 34.8867C173.09 34.7682 173.098 34.6921 173.115 34.6582L173.141 34.4043C173.183 34.0996 173.263 33.8796 173.382 33.7441C173.509 33.6087 173.703 33.541 173.966 33.541H174.156C174.512 33.541 174.761 33.376 174.905 33.0459C175.168 32.4619 175.502 31.9287 175.908 31.4463C176.314 30.9639 176.771 30.5534 177.279 30.2148C177.787 29.8678 178.329 29.6012 178.904 29.415C179.488 29.2204 180.081 29.123 180.682 29.123C181.308 29.123 181.892 29.2161 182.434 29.4023C182.984 29.5801 183.462 29.8298 183.868 30.1514C184.274 30.473 184.592 30.8496 184.82 31.2812C185.057 31.7129 185.176 32.1784 185.176 32.6777C185.176 33.0247 185.108 33.3421 184.973 33.6299C184.837 33.9176 184.643 34.1715 184.389 34.3916C184.135 34.6032 183.826 34.7767 183.462 34.9121C183.106 35.0475 182.7 35.1364 182.243 35.1787L177.838 35.623C177.669 35.623 177.529 35.6654 177.419 35.75C177.317 35.8346 177.267 35.9489 177.267 36.0928C177.267 36.3128 177.347 36.5244 177.508 36.7275C177.677 36.9307 177.897 37.1126 178.168 37.2734C178.447 37.4258 178.765 37.5485 179.12 37.6416C179.484 37.7347 179.856 37.7812 180.237 37.7812C180.601 37.7812 180.974 37.7474 181.354 37.6797C181.744 37.6035 182.125 37.4977 182.497 37.3623C182.878 37.2269 183.246 37.0661 183.602 36.8799C183.957 36.6852 184.291 36.4652 184.604 36.2197ZM181.773 32.9443C181.9 32.9189 182.01 32.8597 182.104 32.7666C182.197 32.665 182.243 32.5423 182.243 32.3984C182.243 32.2715 182.197 32.153 182.104 32.043C182.01 31.9329 181.883 31.8356 181.723 31.751C181.562 31.6579 181.376 31.5859 181.164 31.5352C180.952 31.4844 180.728 31.459 180.491 31.459C180.144 31.459 179.789 31.5098 179.425 31.6113C179.061 31.7129 178.731 31.8483 178.435 32.0176C178.138 32.1784 177.897 32.3604 177.711 32.5635C177.525 32.7581 177.432 32.9528 177.432 33.1475C177.432 33.3421 177.55 33.4395 177.787 33.4395C177.931 33.4395 178.164 33.4225 178.485 33.3887C178.807 33.3548 179.162 33.3167 179.552 33.2744C179.941 33.2236 180.335 33.1686 180.732 33.1094C181.13 33.0501 181.477 32.9951 181.773 32.9443Z" fill="black"/>
<path d="M198.036 36.2197C198.282 36.0081 198.523 35.9023 198.76 35.9023C198.895 35.9023 199.018 35.9362 199.128 36.0039C199.238 36.0716 199.361 36.1774 199.496 36.3213C199.623 36.516 199.712 36.6768 199.763 36.8037C199.822 36.9222 199.852 37.0407 199.852 37.1592C199.852 37.4131 199.725 37.6543 199.471 37.8828C199.064 38.2214 198.624 38.526 198.15 38.7969C197.676 39.0592 197.181 39.2835 196.665 39.4697C196.149 39.6559 195.616 39.7956 195.065 39.8887C194.515 39.9902 193.969 40.041 193.428 40.041C192.742 40.041 192.099 39.9521 191.498 39.7744C190.897 39.6051 190.36 39.3597 189.886 39.0381C189.42 38.7165 189.027 38.3314 188.705 37.8828C188.383 37.4258 188.155 36.9137 188.02 36.3467C187.943 36.1097 187.871 35.9574 187.804 35.8896C187.744 35.8135 187.643 35.7754 187.499 35.7754C187.186 35.7754 186.945 35.6992 186.775 35.5469C186.606 35.3945 186.521 35.1745 186.521 34.8867C186.521 34.7682 186.53 34.6921 186.547 34.6582L186.572 34.4043C186.615 34.0996 186.695 33.8796 186.813 33.7441C186.94 33.6087 187.135 33.541 187.397 33.541H187.588C187.943 33.541 188.193 33.376 188.337 33.0459C188.599 32.4619 188.934 31.9287 189.34 31.4463C189.746 30.9639 190.203 30.5534 190.711 30.2148C191.219 29.8678 191.76 29.6012 192.336 29.415C192.92 29.2204 193.512 29.123 194.113 29.123C194.74 29.123 195.324 29.2161 195.865 29.4023C196.415 29.5801 196.894 29.8298 197.3 30.1514C197.706 30.473 198.023 30.8496 198.252 31.2812C198.489 31.7129 198.607 32.1784 198.607 32.6777C198.607 33.0247 198.54 33.3421 198.404 33.6299C198.269 33.9176 198.074 34.1715 197.82 34.3916C197.566 34.6032 197.257 34.7767 196.894 34.9121C196.538 35.0475 196.132 35.1364 195.675 35.1787L191.27 35.623C191.1 35.623 190.961 35.6654 190.851 35.75C190.749 35.8346 190.698 35.9489 190.698 36.0928C190.698 36.3128 190.779 36.5244 190.939 36.7275C191.109 36.9307 191.329 37.1126 191.6 37.2734C191.879 37.4258 192.196 37.5485 192.552 37.6416C192.916 37.7347 193.288 37.7812 193.669 37.7812C194.033 37.7812 194.405 37.7474 194.786 37.6797C195.175 37.6035 195.556 37.4977 195.929 37.3623C196.31 37.2269 196.678 37.0661 197.033 36.8799C197.389 36.6852 197.723 36.4652 198.036 36.2197ZM195.205 32.9443C195.332 32.9189 195.442 32.8597 195.535 32.7666C195.628 32.665 195.675 32.5423 195.675 32.3984C195.675 32.2715 195.628 32.153 195.535 32.043C195.442 31.9329 195.315 31.8356 195.154 31.751C194.993 31.6579 194.807 31.5859 194.596 31.5352C194.384 31.4844 194.16 31.459 193.923 31.459C193.576 31.459 193.22 31.5098 192.856 31.6113C192.493 31.7129 192.162 31.8483 191.866 32.0176C191.57 32.1784 191.329 32.3604 191.143 32.5635C190.956 32.7581 190.863 32.9528 190.863 33.1475C190.863 33.3421 190.982 33.4395 191.219 33.4395C191.363 33.4395 191.595 33.4225 191.917 33.3887C192.239 33.3548 192.594 33.3167 192.983 33.2744C193.373 33.2236 193.766 33.1686 194.164 33.1094C194.562 33.0501 194.909 32.9951 195.205 32.9443Z" fill="black"/>
<path d="M19.9552 81.1156C22.3458 84.5361 25.1799 87.0623 28.2924 88.8076C31.4077 90.5583 34.8054 91.5267 38.3246 91.8383C41.8466 92.1552 45.486 91.8113 49.0874 90.9347C52.6901 90.0568 56.2589 88.6474 59.6272 86.824C61.6232 85.7447 63.5407 84.526 65.3654 83.1771C67.2068 81.8167 68.9323 80.306 70.5243 78.6605C72.106 77.0149 73.5342 75.2315 74.7412 73.3109C75.9483 71.3929 76.9398 69.3405 77.6535 67.1621C78.0908 65.8252 78.4506 64.1018 78.6179 62.2638C78.7825 60.4285 78.7532 58.4747 78.4041 56.6881C78.055 54.9016 77.39 53.2755 76.2887 52.0928C75.1874 50.9101 73.6498 50.1655 71.5498 50.1393C70.0324 50.1175 68.5557 50.63 67.3781 51.5873C66.2115 52.5036 65.2679 53.7892 64.509 55.2325C63.7488 56.6745 63.1788 58.2796 62.7663 59.8362C62.3927 61.255 62.1341 62.7017 61.993 64.1621C61.8061 66.2196 61.8116 68.2901 62.0093 70.3466C62.2099 72.4304 62.6006 74.4915 63.1765 76.5042C63.7555 78.5197 64.5217 80.4783 65.4732 82.3275C66.4126 84.1685 67.5516 85.9007 68.8698 87.4927C70.2998 89.2236 71.9687 90.7422 73.8264 92.003C75.5881 93.1953 77.5207 94.1129 79.5581 94.7244C92.2577 98.5297 104.238 89.6679 113.012 81.5203C117.353 77.4867 121.59 73.3419 125.8 69.1744C130.135 64.8912 134.267 60.4113 138.186 55.7455" stroke="black" stroke-width="2.5" stroke-miterlimit="10" stroke-linecap="round"/>
<path d="M21.5233 96.5246C20.8398 88.1793 14.1361 83.368 11.9298 75.6711C17.9784 76.5483 30.3239 77.7761 36.1367 75.0177" stroke="black" stroke-width="2.5" stroke-miterlimit="10" stroke-linecap="round" stroke-linejoin="round"/>
</g>
</svg>
