<svg xmlns="http://www.w3.org/2000/svg" width="202" height="140" fill="none" viewBox="0 0 202 140"><path fill="#000" d="M102.859 40.7461C102.859 40.0098 102.838 39.21 102.796 38.3467C102.754 37.4834 102.699 36.6117 102.631 35.7314C102.572 34.8428 102.504 33.9753 102.428 33.1289C102.36 32.2826 102.292 31.5081 102.225 30.8057C102.165 30.1032 102.115 29.498 102.072 28.9902C102.03 28.4824 102.009 28.127 102.009 27.9238C102.009 27.5853 102.136 27.3271 102.39 27.1494C102.644 26.9717 103.012 26.8828 103.494 26.8828C103.706 26.8828 103.883 26.904 104.027 26.9463C104.18 26.9886 104.302 27.0605 104.396 27.1621C104.489 27.2637 104.561 27.3991 104.611 27.5684C104.671 27.7292 104.713 27.9323 104.738 28.1777C104.772 28.5163 104.802 28.8802 104.827 29.2695C104.853 29.6504 104.878 30.0863 104.903 30.5771C104.937 31.068 104.971 31.6224 105.005 32.2402C105.039 32.8581 105.081 33.569 105.132 34.373C105.132 34.4915 105.153 34.5762 105.195 34.627C105.238 34.6777 105.284 34.7031 105.335 34.7031C105.428 34.7031 105.513 34.627 105.589 34.4746C106.308 33.0104 107.062 31.8932 107.849 31.123C108.636 30.3444 109.402 29.9551 110.146 29.9551C110.587 29.9551 110.934 30.0863 111.188 30.3486C111.441 30.611 111.568 30.9622 111.568 31.4023C111.568 31.8763 111.463 32.3164 111.251 32.7227C111.048 33.1204 110.79 33.4971 110.477 33.8525C110.172 34.208 109.838 34.5423 109.474 34.8555C109.118 35.1686 108.784 35.4733 108.471 35.7695C108.166 36.0658 107.908 36.3577 107.696 36.6455C107.493 36.9248 107.392 37.2083 107.392 37.4961C107.392 37.7585 107.544 38.0293 107.849 38.3086C108.162 38.5794 108.61 38.8503 109.194 39.1211C109.778 39.3835 110.493 39.6416 111.34 39.8955C112.186 40.141 113.147 40.3779 114.222 40.6064C114.391 40.6488 114.509 40.7165 114.577 40.8096C114.653 40.9027 114.691 41.0254 114.691 41.1777C114.691 41.3639 114.649 41.5544 114.564 41.749C114.48 41.9521 114.374 42.1341 114.247 42.2949C114.12 42.4642 113.976 42.5996 113.815 42.7012C113.663 42.8112 113.515 42.8662 113.371 42.8662C113.083 42.8662 112.741 42.8281 112.343 42.752C111.945 42.6758 111.513 42.57 111.048 42.4346C110.591 42.3076 110.117 42.1553 109.626 41.9775C109.135 41.8083 108.657 41.6221 108.191 41.4189C107.734 41.2243 107.299 41.0212 106.884 40.8096C106.478 40.5895 106.126 40.3737 105.83 40.1621C105.737 40.1113 105.661 40.069 105.602 40.0352C105.551 40.0013 105.504 39.9844 105.462 39.9844C105.411 39.9844 105.382 40.0055 105.373 40.0479C105.365 40.0817 105.36 40.1579 105.36 40.2764C105.36 40.5726 105.335 40.8138 105.284 41C105.242 41.1862 105.166 41.3301 105.056 41.4316C104.946 41.5417 104.793 41.6178 104.599 41.6602C104.404 41.7025 104.163 41.7236 103.875 41.7236C103.494 41.7236 103.228 41.6517 103.075 41.5078C102.931 41.3639 102.859 41.11 102.859 40.7461ZM113.866 36.7852C113.866 36.6413 113.883 36.4805 113.917 36.3027C113.951 36.125 113.968 35.9303 113.968 35.7188C113.968 35.5749 113.904 35.4648 113.777 35.3887C113.659 35.3125 113.523 35.2279 113.371 35.1348C113.219 35.0417 113.079 34.9232 112.952 34.7793C112.834 34.6354 112.774 34.4281 112.774 34.1572C112.774 33.9626 112.825 33.7679 112.927 33.5732C113.037 33.3786 113.193 33.2008 113.396 33.04C113.896 32.6676 114.412 32.3333 114.945 32.0371C115.487 31.7409 116.024 31.4912 116.558 31.2881C117.099 31.085 117.632 30.9284 118.157 30.8184C118.682 30.7083 119.186 30.6533 119.668 30.6533C120.48 30.6533 121.242 30.8057 121.953 31.1104C122.673 31.4066 123.295 31.8171 123.819 32.3418C124.353 32.8581 124.771 33.4674 125.076 34.1699C125.389 34.8639 125.546 35.6087 125.546 36.4043C125.546 37.1829 125.381 37.9235 125.051 38.626C124.729 39.32 124.293 39.9294 123.743 40.4541C123.193 40.9788 122.546 41.3936 121.801 41.6982C121.064 42.0114 120.286 42.168 119.465 42.168C118.661 42.168 117.916 42.0326 117.23 41.7617C116.545 41.4909 115.952 41.1185 115.453 40.6445C114.954 40.1621 114.564 39.5951 114.285 38.9434C114.006 38.2832 113.866 37.5638 113.866 36.7852ZM119.744 39.8828C120.1 39.8828 120.468 39.8109 120.849 39.667C121.229 39.5231 121.576 39.3158 121.89 39.0449C122.211 38.7656 122.474 38.4271 122.677 38.0293C122.888 37.6315 122.994 37.1829 122.994 36.6836C122.994 36.1758 122.901 35.7018 122.715 35.2617C122.529 34.8216 122.271 34.4408 121.94 34.1191C121.619 33.7891 121.234 33.5309 120.785 33.3447C120.345 33.1585 119.867 33.0654 119.351 33.0654C118.411 33.0654 117.692 33.3109 117.192 33.8018C116.693 34.2842 116.443 35.029 116.443 36.0361C116.443 36.5863 116.524 37.0983 116.685 37.5723C116.854 38.0378 117.087 38.444 117.383 38.791C117.679 39.1296 118.026 39.3962 118.424 39.5908C118.83 39.7855 119.27 39.8828 119.744 39.8828ZM130.37 29.9805C130.937 29.9805 131.521 30.0566 132.122 30.209C132.723 30.3529 133.273 30.5433 133.772 30.7803C134.272 31.0088 134.682 31.2669 135.004 31.5547C135.326 31.8424 135.486 32.1217 135.486 32.3926C135.486 32.528 135.427 32.6803 135.309 32.8496C135.19 33.0104 135.046 33.167 134.877 33.3193C134.708 33.4632 134.521 33.5859 134.318 33.6875C134.124 33.7806 133.95 33.8271 133.798 33.8271C133.595 33.8271 133.366 33.7425 133.112 33.5732C132.867 33.404 132.592 33.2178 132.287 33.0146C131.991 32.8031 131.665 32.6126 131.31 32.4434C130.954 32.2741 130.569 32.1895 130.154 32.1895C129.883 32.1895 129.659 32.2572 129.481 32.3926C129.312 32.5195 129.228 32.7015 129.228 32.9385C129.228 33.1501 129.329 33.3659 129.532 33.5859C129.735 33.7975 130.002 34.0176 130.332 34.2461C130.671 34.4746 131.051 34.7158 131.475 34.9697C131.898 35.2236 132.329 35.4945 132.77 35.7822C133.218 36.07 133.654 36.3831 134.077 36.7217C134.5 37.0602 134.877 37.4284 135.207 37.8262C135.546 38.224 135.816 38.6598 136.02 39.1338C136.223 39.5993 136.324 40.1071 136.324 40.6572C136.324 41.1312 136.24 41.5628 136.07 41.9521C135.901 42.3415 135.66 42.6758 135.347 42.9551C135.034 43.2344 134.661 43.4502 134.229 43.6025C133.798 43.7549 133.324 43.8311 132.808 43.8311C132.156 43.8311 131.555 43.7295 131.005 43.5264C130.455 43.3317 129.981 43.0609 129.583 42.7139C129.185 42.3669 128.872 41.9521 128.644 41.4697C128.424 40.9873 128.313 40.4583 128.313 39.8828C128.313 39.138 128.445 38.5964 128.707 38.2578C128.978 37.9193 129.401 37.75 129.977 37.75C130.332 37.75 130.616 37.8177 130.827 37.9531C131.039 38.0885 131.145 38.2536 131.145 38.4482C131.145 38.5498 131.128 38.6556 131.094 38.7656C131.06 38.8672 131.022 38.9772 130.979 39.0957C130.946 39.2057 130.912 39.3242 130.878 39.4512C130.853 39.5781 130.84 39.7051 130.84 39.832C130.84 40.0521 130.891 40.2637 130.992 40.4668C131.094 40.6699 131.229 40.8477 131.398 41C131.576 41.1608 131.779 41.2878 132.008 41.3809C132.236 41.474 132.478 41.5205 132.731 41.5205C133.409 41.5205 133.747 41.2412 133.747 40.6826C133.747 40.2425 133.574 39.8278 133.227 39.4385C132.88 39.0407 132.444 38.6556 131.919 38.2832C131.394 37.9023 130.827 37.5215 130.218 37.1406C129.617 36.7598 129.054 36.362 128.529 35.9473C128.005 35.5326 127.569 35.0924 127.222 34.627C126.875 34.153 126.701 33.641 126.701 33.0908C126.701 32.6338 126.794 32.2148 126.98 31.834C127.175 31.4531 127.438 31.1273 127.768 30.8564C128.098 30.5771 128.483 30.3613 128.923 30.209C129.371 30.0566 129.854 29.9805 130.37 29.9805ZM137.962 26.3369C137.962 25.8883 138.089 25.5752 138.343 25.3975C138.597 25.2113 139.016 25.1182 139.6 25.1182C139.811 25.1182 139.989 25.1393 140.133 25.1816C140.285 25.2155 140.412 25.2832 140.514 25.3848C140.624 25.4863 140.708 25.6217 140.768 25.791C140.835 25.9518 140.89 26.1592 140.933 26.4131C141.034 27.2002 141.144 28.0127 141.263 28.8506C141.39 29.6885 141.521 30.5306 141.656 31.377C141.707 31.7578 141.906 31.9482 142.253 31.9482C142.346 31.9482 142.498 31.9398 142.71 31.9229C142.93 31.8975 143.188 31.8721 143.484 31.8467C143.781 31.8128 144.098 31.779 144.437 31.7451C144.784 31.7113 145.126 31.6816 145.465 31.6562C145.812 31.6224 146.138 31.597 146.442 31.5801C146.756 31.5547 147.031 31.542 147.268 31.542C147.454 31.542 147.602 31.5801 147.712 31.6562C147.822 31.724 147.907 31.8171 147.966 31.9355C148.034 32.0456 148.076 32.1725 148.093 32.3164C148.118 32.4518 148.131 32.5915 148.131 32.7354C148.131 32.8623 148.105 32.9935 148.055 33.1289C148.012 33.2643 147.949 33.387 147.864 33.4971C147.788 33.5986 147.691 33.6833 147.572 33.751C147.454 33.8187 147.318 33.8525 147.166 33.8525C146.43 33.8525 145.685 33.8779 144.932 33.9287C144.187 33.971 143.442 34.0303 142.697 34.1064C142.316 34.1572 142.126 34.3477 142.126 34.6777C142.126 34.7031 142.13 34.737 142.139 34.7793C142.147 34.8132 142.151 34.8428 142.151 34.8682C142.253 35.6045 142.346 36.2943 142.431 36.9375C142.524 37.5807 142.6 38.1562 142.659 38.6641C142.727 39.1634 142.778 39.5824 142.812 39.9209C142.854 40.251 142.875 40.471 142.875 40.5811C142.875 40.8857 142.845 41.1396 142.786 41.3428C142.727 41.5544 142.63 41.7236 142.494 41.8506C142.359 41.986 142.177 42.0791 141.948 42.1299C141.728 42.1891 141.449 42.2188 141.11 42.2188C140.789 42.2188 140.552 42.1426 140.399 41.9902C140.247 41.8379 140.162 41.6051 140.146 41.292C140.095 40.2933 140.014 39.2904 139.904 38.2832C139.794 37.2676 139.667 36.2562 139.523 35.249C139.447 34.8851 139.257 34.7031 138.952 34.7031C138.927 34.7031 138.897 34.7074 138.863 34.7158C138.829 34.7243 138.8 34.7285 138.774 34.7285C138.25 34.847 137.755 34.9655 137.289 35.084C136.824 35.2025 136.388 35.3294 135.981 35.4648C135.753 35.541 135.55 35.596 135.372 35.6299C135.194 35.6553 135.034 35.668 134.89 35.668C134.695 35.668 134.551 35.5833 134.458 35.4141C134.365 35.2363 134.318 35.0163 134.318 34.7539C134.318 34.6608 134.327 34.555 134.344 34.4365C134.361 34.3096 134.395 34.1868 134.445 34.0684C134.488 33.9414 134.555 33.8271 134.648 33.7256C134.733 33.6156 134.852 33.5267 135.004 33.459C135.359 33.3151 135.833 33.167 136.426 33.0146C137.018 32.8538 137.687 32.7057 138.432 32.5703C138.601 32.528 138.732 32.4603 138.825 32.3672C138.927 32.2656 138.978 32.1175 138.978 31.9229C138.978 31.8805 138.978 31.8382 138.978 31.7959C138.978 31.7451 138.969 31.6943 138.952 31.6436C138.817 30.8649 138.686 30.1582 138.559 29.5234C138.44 28.8802 138.334 28.3301 138.241 27.873C138.157 27.416 138.089 27.0563 138.038 26.7939C137.987 26.5316 137.962 26.3792 137.962 26.3369ZM158.198 38.2197C158.444 38.0081 158.685 37.9023 158.922 37.9023C159.057 37.9023 159.18 37.9362 159.29 38.0039C159.4 38.0716 159.523 38.1774 159.658 38.3213C159.785 38.516 159.874 38.6768 159.925 38.8037C159.984 38.9222 160.014 39.0407 160.014 39.1592C160.014 39.4131 159.887 39.6543 159.633 39.8828C159.227 40.2214 158.786 40.526 158.312 40.7969C157.839 41.0592 157.343 41.2835 156.827 41.4697C156.311 41.6559 155.778 41.7956 155.228 41.8887C154.677 41.9902 154.132 42.041 153.59 42.041C152.904 42.041 152.261 41.9521 151.66 41.7744C151.059 41.6051 150.522 41.3597 150.048 41.0381C149.582 40.7165 149.189 40.3314 148.867 39.8828C148.546 39.4258 148.317 38.9137 148.182 38.3467C148.105 38.1097 148.034 37.9574 147.966 37.8896C147.907 37.8135 147.805 37.7754 147.661 37.7754C147.348 37.7754 147.107 37.6992 146.938 37.5469C146.768 37.3945 146.684 37.1745 146.684 36.8867C146.684 36.7682 146.692 36.6921 146.709 36.6582L146.734 36.4043C146.777 36.0996 146.857 35.8796 146.976 35.7441C147.103 35.6087 147.297 35.541 147.56 35.541H147.75C148.105 35.541 148.355 35.376 148.499 35.0459C148.761 34.4619 149.096 33.9287 149.502 33.4463C149.908 32.9639 150.365 32.5534 150.873 32.2148C151.381 31.8678 151.923 31.6012 152.498 31.415C153.082 31.2204 153.674 31.123 154.275 31.123C154.902 31.123 155.486 31.2161 156.027 31.4023C156.577 31.5801 157.056 31.8298 157.462 32.1514C157.868 32.473 158.186 32.8496 158.414 33.2812C158.651 33.7129 158.77 34.1784 158.77 34.6777C158.77 35.0247 158.702 35.3421 158.566 35.6299C158.431 35.9176 158.236 36.1715 157.982 36.3916C157.729 36.6032 157.42 36.7767 157.056 36.9121C156.7 37.0475 156.294 37.1364 155.837 37.1787L151.432 37.623C151.262 37.623 151.123 37.6654 151.013 37.75C150.911 37.8346 150.86 37.9489 150.86 38.0928C150.86 38.3128 150.941 38.5244 151.102 38.7275C151.271 38.9307 151.491 39.1126 151.762 39.2734C152.041 39.4258 152.358 39.5485 152.714 39.6416C153.078 39.7347 153.45 39.7812 153.831 39.7812C154.195 39.7812 154.567 39.7474 154.948 39.6797C155.338 39.6035 155.718 39.4977 156.091 39.3623C156.472 39.2269 156.84 39.0661 157.195 38.8799C157.551 38.6852 157.885 38.4652 158.198 38.2197ZM155.367 34.9443C155.494 34.9189 155.604 34.8597 155.697 34.7666C155.79 34.665 155.837 34.5423 155.837 34.3984C155.837 34.2715 155.79 34.153 155.697 34.043C155.604 33.9329 155.477 33.8356 155.316 33.751C155.156 33.6579 154.969 33.5859 154.758 33.5352C154.546 33.4844 154.322 33.459 154.085 33.459C153.738 33.459 153.382 33.5098 153.019 33.6113C152.655 33.7129 152.325 33.8483 152.028 34.0176C151.732 34.1784 151.491 34.3604 151.305 34.5635C151.118 34.7581 151.025 34.9528 151.025 35.1475C151.025 35.3421 151.144 35.4395 151.381 35.4395C151.525 35.4395 151.757 35.4225 152.079 35.3887C152.401 35.3548 152.756 35.3167 153.146 35.2744C153.535 35.2236 153.928 35.1686 154.326 35.1094C154.724 35.0501 155.071 34.9951 155.367 34.9443ZM161.042 30.7549C161.042 30.6279 161.097 30.5052 161.207 30.3867C161.317 30.2598 161.461 30.1497 161.639 30.0566C161.816 29.9551 162.015 29.8747 162.235 29.8154C162.464 29.7477 162.692 29.7139 162.921 29.7139C163.048 29.7139 163.154 29.7477 163.238 29.8154C163.331 29.8831 163.412 30.0143 163.479 30.209C163.547 30.3952 163.606 30.6618 163.657 31.0088C163.716 31.3473 163.771 31.7917 163.822 32.3418C163.856 32.5111 163.886 32.6423 163.911 32.7354C163.945 32.82 163.987 32.8623 164.038 32.8623C164.114 32.8623 164.19 32.7311 164.267 32.4688C164.884 30.6829 165.777 29.79 166.945 29.79C167.487 29.79 167.978 29.9593 168.418 30.2979C168.867 30.6364 169.281 31.1908 169.662 31.9609C170.051 32.7227 170.42 33.7298 170.767 34.9824C171.114 36.2266 171.461 37.7627 171.808 39.5908C171.825 39.6839 171.837 39.7686 171.846 39.8447C171.854 39.9209 171.858 39.9928 171.858 40.0605C171.858 40.2552 171.812 40.4245 171.719 40.5684C171.634 40.7038 171.52 40.818 171.376 40.9111C171.232 40.9958 171.071 41.0592 170.894 41.1016C170.716 41.1523 170.538 41.1777 170.36 41.1777C170.005 41.1777 169.747 41.1396 169.586 41.0635C169.434 40.9873 169.336 40.8434 169.294 40.6318C169.049 39.3454 168.807 38.2028 168.57 37.2041C168.342 36.2054 168.113 35.3675 167.885 34.6904C167.665 34.0049 167.445 33.4844 167.225 33.1289C167.005 32.7734 166.785 32.5957 166.564 32.5957C166.344 32.5957 166.137 32.7354 165.942 33.0146C165.756 33.2855 165.574 33.7129 165.396 34.2969C165.219 34.8809 165.045 35.6214 164.876 36.5186C164.715 37.4157 164.559 38.4863 164.406 39.7305C164.364 40.069 164.195 40.3398 163.898 40.543C163.602 40.7461 163.226 40.8477 162.769 40.8477C162.464 40.8477 162.231 40.7842 162.07 40.6572C161.91 40.5303 161.821 40.3568 161.804 40.1367C161.728 38.3763 161.643 36.929 161.55 35.7949C161.465 34.6523 161.385 33.7383 161.309 33.0527C161.232 32.3587 161.169 31.8424 161.118 31.5039C161.067 31.1654 161.042 30.9157 161.042 30.7549ZM172.506 26.54C172.506 26.0999 172.633 25.7868 172.887 25.6006C173.141 25.4144 173.56 25.3213 174.144 25.3213C174.347 25.3213 174.524 25.3424 174.677 25.3848C174.829 25.4271 174.956 25.499 175.058 25.6006C175.159 25.6937 175.24 25.8249 175.299 25.9941C175.367 26.1549 175.422 26.3623 175.464 26.6162C175.574 27.3695 175.684 28.1608 175.794 28.9902C175.912 29.8112 176.022 30.6322 176.124 31.4531C176.234 32.2656 176.336 33.0612 176.429 33.8398C176.522 34.61 176.602 35.3294 176.67 35.998C176.746 36.6582 176.801 37.2464 176.835 37.7627C176.877 38.2705 176.898 38.6725 176.898 38.9688C176.898 39.2734 176.869 39.5316 176.81 39.7432C176.759 39.9548 176.666 40.124 176.53 40.251C176.403 40.3779 176.234 40.471 176.022 40.5303C175.819 40.5811 175.565 40.6064 175.261 40.6064C174.965 40.6064 174.728 40.5303 174.55 40.3779C174.381 40.2256 174.296 39.9928 174.296 39.6797C174.296 39.3581 174.271 38.9307 174.22 38.3975C174.169 37.8558 174.101 37.2549 174.017 36.5947C173.932 35.9346 173.835 35.2321 173.725 34.4873C173.623 33.7425 173.513 33.0062 173.395 32.2783C173.285 31.5505 173.174 30.8522 173.064 30.1836C172.963 29.5065 172.87 28.9098 172.785 28.3936C172.701 27.8688 172.633 27.4414 172.582 27.1113C172.531 26.7728 172.506 26.5824 172.506 26.54ZM179.095 36.7852C179.095 36.6413 179.112 36.4805 179.146 36.3027C179.179 36.125 179.196 35.9303 179.196 35.7188C179.196 35.5749 179.133 35.4648 179.006 35.3887C178.887 35.3125 178.752 35.2279 178.6 35.1348C178.447 35.0417 178.308 34.9232 178.181 34.7793C178.062 34.6354 178.003 34.4281 178.003 34.1572C178.003 33.9626 178.054 33.7679 178.155 33.5732C178.265 33.3786 178.422 33.2008 178.625 33.04C179.124 32.6676 179.641 32.3333 180.174 32.0371C180.715 31.7409 181.253 31.4912 181.786 31.2881C182.328 31.085 182.861 30.9284 183.386 30.8184C183.91 30.7083 184.414 30.6533 184.896 30.6533C185.709 30.6533 186.471 30.8057 187.182 31.1104C187.901 31.4066 188.523 31.8171 189.048 32.3418C189.581 32.8581 190 33.4674 190.305 34.1699C190.618 34.8639 190.774 35.6087 190.774 36.4043C190.774 37.1829 190.609 37.9235 190.279 38.626C189.958 39.32 189.522 39.9294 188.972 40.4541C188.422 40.9788 187.774 41.3936 187.029 41.6982C186.293 42.0114 185.514 42.168 184.693 42.168C183.889 42.168 183.145 42.0326 182.459 41.7617C181.773 41.4909 181.181 41.1185 180.682 40.6445C180.182 40.1621 179.793 39.5951 179.514 38.9434C179.234 38.2832 179.095 37.5638 179.095 36.7852ZM184.973 39.8828C185.328 39.8828 185.696 39.8109 186.077 39.667C186.458 39.5231 186.805 39.3158 187.118 39.0449C187.44 38.7656 187.702 38.4271 187.905 38.0293C188.117 37.6315 188.223 37.1829 188.223 36.6836C188.223 36.1758 188.13 35.7018 187.943 35.2617C187.757 34.8216 187.499 34.4408 187.169 34.1191C186.847 33.7891 186.462 33.5309 186.014 33.3447C185.574 33.1585 185.095 33.0654 184.579 33.0654C183.64 33.0654 182.92 33.3109 182.421 33.8018C181.922 34.2842 181.672 35.029 181.672 36.0361C181.672 36.5863 181.752 37.0983 181.913 37.5723C182.082 38.0378 182.315 38.444 182.611 38.791C182.908 39.1296 183.255 39.3962 183.652 39.5908C184.059 39.7855 184.499 39.8828 184.973 39.8828ZM195.599 29.9805C196.166 29.9805 196.75 30.0566 197.351 30.209C197.951 30.3529 198.502 30.5433 199.001 30.7803C199.5 31.0088 199.911 31.2669 200.232 31.5547C200.554 31.8424 200.715 32.1217 200.715 32.3926C200.715 32.528 200.656 32.6803 200.537 32.8496C200.419 33.0104 200.275 33.167 200.105 33.3193C199.936 33.4632 199.75 33.5859 199.547 33.6875C199.352 33.7806 199.179 33.8271 199.026 33.8271C198.823 33.8271 198.595 33.7425 198.341 33.5732C198.095 33.404 197.82 33.2178 197.516 33.0146C197.219 32.8031 196.894 32.6126 196.538 32.4434C196.183 32.2741 195.798 32.1895 195.383 32.1895C195.112 32.1895 194.888 32.2572 194.71 32.3926C194.541 32.5195 194.456 32.7015 194.456 32.9385C194.456 33.1501 194.558 33.3659 194.761 33.5859C194.964 33.7975 195.23 34.0176 195.561 34.2461C195.899 34.4746 196.28 34.7158 196.703 34.9697C197.126 35.2236 197.558 35.4945 197.998 35.7822C198.447 36.07 198.882 36.3831 199.306 36.7217C199.729 37.0602 200.105 37.4284 200.436 37.8262C200.774 38.224 201.045 38.6598 201.248 39.1338C201.451 39.5993 201.553 40.1071 201.553 40.6572C201.553 41.1312 201.468 41.5628 201.299 41.9521C201.13 42.3415 200.888 42.6758 200.575 42.9551C200.262 43.2344 199.89 43.4502 199.458 43.6025C199.026 43.7549 198.552 43.8311 198.036 43.8311C197.384 43.8311 196.784 43.7295 196.233 43.5264C195.683 43.3317 195.209 43.0609 194.812 42.7139C194.414 42.3669 194.101 41.9521 193.872 41.4697C193.652 40.9873 193.542 40.4583 193.542 39.8828C193.542 39.138 193.673 38.5964 193.936 38.2578C194.206 37.9193 194.63 37.75 195.205 37.75C195.561 37.75 195.844 37.8177 196.056 37.9531C196.267 38.0885 196.373 38.2536 196.373 38.4482C196.373 38.5498 196.356 38.6556 196.322 38.7656C196.288 38.8672 196.25 38.9772 196.208 39.0957C196.174 39.2057 196.14 39.3242 196.106 39.4512C196.081 39.5781 196.068 39.7051 196.068 39.832C196.068 40.0521 196.119 40.2637 196.221 40.4668C196.322 40.6699 196.458 40.8477 196.627 41C196.805 41.1608 197.008 41.2878 197.236 41.3809C197.465 41.474 197.706 41.5205 197.96 41.5205C198.637 41.5205 198.976 41.2412 198.976 40.6826C198.976 40.2425 198.802 39.8278 198.455 39.4385C198.108 39.0407 197.672 38.6556 197.147 38.2832C196.623 37.9023 196.056 37.5215 195.446 37.1406C194.845 36.7598 194.283 36.362 193.758 35.9473C193.233 35.5326 192.797 35.0924 192.45 34.627C192.103 34.153 191.93 33.641 191.93 33.0908C191.93 32.6338 192.023 32.2148 192.209 31.834C192.404 31.4531 192.666 31.1273 192.996 30.8564C193.326 30.5771 193.711 30.3613 194.151 30.209C194.6 30.0566 195.082 29.9805 195.599 29.9805Z"/><path stroke="#000" stroke-linecap="round" stroke-miterlimit="10" stroke-width="2.5" d="M19.9552 81.1156C22.3458 84.5361 25.1799 87.0623 28.2924 88.8076C31.4077 90.5583 34.8054 91.5267 38.3246 91.8383C41.8466 92.1553 45.486 91.8114 49.0874 90.9348C52.6901 90.0568 56.2589 88.6474 59.6272 86.824C61.6232 85.7447 63.5407 84.5261 65.3654 83.1772C67.2068 81.8167 68.9323 80.306 70.5243 78.6606C72.106 77.0149 73.5342 75.2315 74.7412 73.3109C75.9483 71.393 76.9398 69.3405 77.6535 67.1621C78.0908 65.8253 78.4506 64.1018 78.6179 62.2638C78.7825 60.4285 78.7532 58.4747 78.4041 56.6882C78.055 54.9016 77.39 53.2755 76.2887 52.0928C75.1874 50.9101 73.6498 50.1655 71.5498 50.1394C70.0324 50.1175 68.5557 50.6301 67.3781 51.5874C66.2115 52.5036 65.2679 53.7892 64.509 55.2326C63.7488 56.6745 63.1788 58.2796 62.7663 59.8362C62.3927 61.2551 62.1341 62.7017 61.993 64.1621C61.8061 66.2196 61.8116 68.2901 62.0093 70.3466C62.2099 72.4304 62.6006 74.4915 63.1765 76.5042C63.7555 78.5197 64.5217 80.4783 65.4732 82.3275C66.4126 84.1686 67.5516 85.9007 68.8698 87.4927C70.2998 89.2236 71.9687 90.7422 73.8264 92.003C75.5881 93.1953 77.5207 94.1129 79.5581 94.7244C92.2577 98.5297 104.238 89.6679 113.012 81.5203C117.353 77.4867 121.59 73.342 125.8 69.1745C130.135 64.8913 134.267 60.4113 138.186 55.7455"/><path stroke="#000" stroke-linecap="round" stroke-linejoin="round" stroke-miterlimit="10" stroke-width="2.5" d="M21.5233 96.5246C20.8398 88.1793 14.1361 83.3681 11.9298 75.6711C17.9784 76.5484 30.3239 77.7762 36.1367 75.0178"/></svg>