<svg width="844" height="844" viewBox="0 0 844 844" fill="none" xmlns="http://www.w3.org/2000/svg">
<g filter="url(#filter0_dii_283_69)">
<path fill-rule="evenodd" clip-rule="evenodd" d="M834 256.627C834 246.845 834.004 237.062 833.944 227.279C833.895 219.038 833.8 210.799 833.576 202.562C833.092 184.609 832.033 166.502 828.84 148.749C825.602 130.741 820.314 113.98 811.981 97.6166C803.789 81.5337 793.088 66.8168 780.32 54.0578C767.555 41.2989 752.834 30.6049 736.746 22.4179C720.366 14.0829 703.587 8.79697 685.558 5.55998C667.803 2.37199 649.691 1.315 631.738 0.829997C623.495 0.606998 615.253 0.512998 607.008 0.461998C597.22 0.401999 587.432 0.406999 577.644 0.406999L463.997 0H378.997L267.361 0.406999C257.554 0.406999 247.747 0.401999 237.94 0.461998C229.678 0.512998 221.42 0.606998 213.161 0.829997C195.167 1.315 177.014 2.37299 159.217 5.56498C141.164 8.80097 124.36 14.0849 107.958 22.4139C91.8354 30.6019 77.0825 41.2969 64.2906 54.0578C51.5007 66.8158 40.7798 81.5297 32.5728 97.6096C24.2169 113.981 18.9189 130.752 15.673 148.77C12.477 166.516 11.418 184.617 10.931 202.562C10.709 210.8 10.613 219.039 10.563 227.279C10.503 237.063 10 249.216 10 258.999L10.003 369.089L10 454.998L10.508 567.427C10.508 577.223 10.504 587.019 10.563 596.815C10.613 605.067 10.709 613.317 10.932 621.566C11.418 639.542 12.479 657.675 15.678 675.452C18.9229 693.484 24.2199 710.269 32.5688 726.653C40.7768 742.759 51.4997 757.495 64.2906 770.272C77.0815 783.049 91.8304 793.757 107.95 801.956C124.362 810.302 141.174 815.595 159.238 818.836C177.027 822.029 195.174 823.088 213.161 823.573C221.42 823.796 229.679 823.891 237.941 823.941C247.748 824.001 257.554 823.997 267.361 823.997L380.006 824H465.217L577.644 823.996C587.432 823.996 597.22 824.001 607.008 823.941C615.253 823.891 623.495 823.796 631.738 823.573C649.698 823.087 667.816 822.027 685.579 818.832C703.597 815.591 720.368 810.3 736.739 801.959C752.831 793.761 767.554 783.051 780.32 770.272C793.086 757.497 803.786 742.763 811.978 726.66C820.316 710.268 825.604 693.475 828.844 675.431C832.034 657.661 833.092 639.535 833.577 621.566C833.8 613.316 833.895 605.066 833.944 596.815C834.005 587.019 834 577.223 834 567.427C834 567.427 833.994 456.983 833.994 454.998V368.999C833.994 367.533 834 256.627 834 256.627Z" fill="url(#paint0_linear_283_69)"/>
</g>
<path d="M422.66 602.231V295.952C422.66 291.773 425.259 288.034 429.177 286.578L629.505 212.136C636.13 209.674 643.148 214.675 642.985 221.74L635.815 532.338C635.72 536.459 633.106 540.1 629.23 541.507L436.072 611.631C429.551 613.998 422.66 609.168 422.66 602.231Z" fill="#D1014C"/>
<path d="M422.66 604.257V295.832C422.66 290.805 426.392 286.559 431.378 285.915L688.668 252.651C695.085 251.821 700.589 257.213 699.892 263.647L662.211 611.057C661.649 616.232 657.212 620.111 652.008 619.976L432.399 614.254C426.98 614.113 422.66 609.679 422.66 604.257Z" fill="#B31948"/>
<path d="M422.66 305.33V593.057C422.66 606.645 421.5 618.5 444.5 612L624.202 543.892C631.069 541.279 635.788 533.87 635.984 525.398L642.133 259.027L437.835 285.44C420 286.5 422.66 295.126 422.66 305.33Z" fill="#FF005C"/>
<path d="M392.84 602.699V295.467C392.84 291.28 390.232 287.537 386.305 286.086L185.976 212.097C179.354 209.652 172.351 214.652 172.514 221.709L179.685 532.353C179.78 536.467 182.385 540.102 186.251 541.515L379.408 612.092C385.933 614.476 392.84 609.646 392.84 602.699Z" fill="#D1014C"/>
<path d="M392.84 604.257V295.832C392.84 290.805 389.108 286.559 384.122 285.915L126.832 252.651C120.415 251.821 114.911 257.213 115.608 263.647L153.289 611.057C153.851 616.232 158.288 620.111 163.492 619.976L383.101 614.254C388.52 614.113 392.84 609.679 392.84 604.257Z" fill="#B31948"/>
<path d="M392.473 305.303V593.03C392.473 608 393.633 618.473 370.633 611.973L190.93 543.865C184.064 541.252 179.345 533.843 179.149 525.371L173 259L377.298 285.413C396 286.5 392.473 295.099 392.473 305.303Z" fill="#FF005C"/>
<defs>
<filter id="filter0_dii_283_69" x="0" y="-3" width="844" height="847" filterUnits="userSpaceOnUse" color-interpolation-filters="sRGB">
<feFlood flood-opacity="0" result="BackgroundImageFix"/>
<feColorMatrix in="SourceAlpha" type="matrix" values="0 0 0 0 0 0 0 0 0 0 0 0 0 0 0 0 0 0 127 0" result="hardAlpha"/>
<feOffset dy="10"/>
<feGaussianBlur stdDeviation="5"/>
<feColorMatrix type="matrix" values="0 0 0 0 0 0 0 0 0 0 0 0 0 0 0 0 0 0 0.3 0"/>
<feBlend mode="normal" in2="BackgroundImageFix" result="effect1_dropShadow_283_69"/>
<feBlend mode="normal" in="SourceGraphic" in2="effect1_dropShadow_283_69" result="shape"/>
<feColorMatrix in="SourceAlpha" type="matrix" values="0 0 0 0 0 0 0 0 0 0 0 0 0 0 0 0 0 0 127 0" result="hardAlpha"/>
<feOffset dy="4"/>
<feGaussianBlur stdDeviation="1"/>
<feComposite in2="hardAlpha" operator="arithmetic" k2="-1" k3="1"/>
<feColorMatrix type="matrix" values="0 0 0 0 0 0 0 0 0 0 0 0 0 0 0 0 0 0 1 0"/>
<feBlend mode="normal" in2="shape" result="effect2_innerShadow_283_69"/>
<feColorMatrix in="SourceAlpha" type="matrix" values="0 0 0 0 0 0 0 0 0 0 0 0 0 0 0 0 0 0 127 0" result="hardAlpha"/>
<feOffset dy="-3"/>
<feGaussianBlur stdDeviation="2"/>
<feComposite in2="hardAlpha" operator="arithmetic" k2="-1" k3="1"/>
<feColorMatrix type="matrix" values="0 0 0 0 0 0 0 0 0 0 0 0 0 0 0 0 0 0 0.25 0"/>
<feBlend mode="normal" in2="effect2_innerShadow_283_69" result="effect3_innerShadow_283_69"/>
</filter>
<linearGradient id="paint0_linear_283_69" x1="422" y1="0" x2="422" y2="824" gradientUnits="userSpaceOnUse">
<stop stop-color="#141414"/>
<stop offset="1"/>
</linearGradient>
</defs>
</svg>
