<svg xmlns="http://www.w3.org/2000/svg" width="844" height="844" fill="none" viewBox="0 0 844 844"><g filter="url(#filter0_dii_283_69)"><path fill="url(#paint0_linear_283_69)" fill-rule="evenodd" d="M834 256.627C834 246.845 834.004 237.062 833.944 227.279C833.895 219.038 833.8 210.799 833.576 202.562C833.092 184.609 832.033 166.502 828.84 148.749C825.602 130.741 820.314 113.98 811.981 97.6166C803.789 81.5337 793.088 66.8168 780.32 54.0578C767.555 41.2989 752.834 30.6049 736.746 22.4179C720.366 14.0829 703.587 8.79697 685.558 5.55998C667.803 2.37199 649.691 1.315 631.738 0.829997C623.495 0.606998 615.253 0.512998 607.008 0.461998C597.22 0.401999 587.432 0.406999 577.644 0.406999L463.997 0H378.997L267.361 0.406999C257.554 0.406999 247.747 0.401999 237.94 0.461998C229.678 0.512998 221.42 0.606998 213.161 0.829997C195.167 1.315 177.014 2.37299 159.217 5.56498C141.164 8.80097 124.36 14.0849 107.958 22.4139C91.8354 30.6019 77.0825 41.2969 64.2906 54.0578C51.5007 66.8158 40.7798 81.5297 32.5728 97.6096C24.2169 113.981 18.9189 130.752 15.673 148.77C12.477 166.516 11.418 184.617 10.931 202.562C10.709 210.8 10.613 219.039 10.563 227.279C10.503 237.063 10 249.216 10 258.999L10.003 369.089L10 454.998L10.508 567.427C10.508 577.223 10.504 587.019 10.563 596.815C10.613 605.067 10.709 613.317 10.932 621.566C11.418 639.542 12.479 657.675 15.678 675.452C18.9229 693.484 24.2199 710.269 32.5688 726.653C40.7768 742.759 51.4997 757.495 64.2906 770.272C77.0815 783.049 91.8304 793.757 107.95 801.956C124.362 810.302 141.174 815.595 159.238 818.836C177.027 822.029 195.174 823.088 213.161 823.573C221.42 823.796 229.679 823.891 237.941 823.941C247.748 824.001 257.554 823.997 267.361 823.997L380.006 824H465.217L577.644 823.996C587.432 823.996 597.22 824.001 607.008 823.941C615.253 823.891 623.495 823.796 631.738 823.573C649.698 823.087 667.816 822.027 685.579 818.832C703.597 815.591 720.368 810.3 736.739 801.959C752.831 793.761 767.554 783.051 780.32 770.272C793.086 757.497 803.786 742.763 811.978 726.66C820.316 710.268 825.604 693.475 828.844 675.431C832.034 657.661 833.092 639.535 833.577 621.566C833.8 613.316 833.895 605.066 833.944 596.815C834.005 587.019 834 577.223 834 567.427C834 567.427 833.994 456.983 833.994 454.998V368.999C833.994 367.533 834 256.627 834 256.627Z" clip-rule="evenodd"/></g><path fill="#D1014C" d="M436.421 581.231V274.952C436.421 270.773 439.02 267.034 442.937 265.578L643.265 191.136C649.89 188.674 656.909 193.675 656.746 200.74L649.576 511.338C649.481 515.459 646.866 519.1 642.991 520.507L449.833 590.631C443.312 592.998 436.421 588.168 436.421 581.231Z"/><path fill="#B31948" d="M436.421 583.257V274.832C436.421 269.805 440.153 265.559 445.138 264.915L702.428 231.651C708.846 230.821 714.35 236.213 713.652 242.647L675.971 590.057C675.41 595.232 670.973 599.111 665.769 598.976L446.16 593.254C440.74 593.113 436.421 588.679 436.421 583.257Z"/><path fill="#FF005C" d="M436.421 284.33V572.057C436.421 585.645 435.261 597.5 458.261 591L637.963 522.892C644.829 520.279 649.549 512.87 649.745 504.398L655.894 238.027L451.596 264.44C433.761 265.5 436.421 274.126 436.421 284.33Z"/><path fill="#D1014C" d="M406.601 581.699V274.467C406.601 270.28 403.993 266.537 400.066 265.086L199.737 191.097C193.115 188.652 186.112 193.652 186.275 200.709L193.446 511.353C193.541 515.467 196.146 519.102 200.011 520.515L393.169 591.092C399.693 593.476 406.601 588.646 406.601 581.699Z"/><path fill="#B31948" d="M406.601 583.257V274.832C406.601 269.805 402.869 265.559 397.883 264.915L140.593 231.651C134.175 230.821 128.671 236.213 129.369 242.647L167.05 590.057C167.612 595.232 172.049 599.111 177.252 598.976L396.861 593.254C402.281 593.113 406.601 588.679 406.601 583.257Z"/><path fill="#FF005C" d="M406.234 284.303V572.03C406.234 587 407.394 597.473 384.394 590.973L204.691 522.865C197.825 520.252 193.105 512.843 192.91 504.371L186.761 238L391.059 264.413C409.761 265.5 406.234 274.099 406.234 284.303Z"/><defs><filter id="filter0_dii_283_69" width="844" height="847" x="0" y="-3" color-interpolation-filters="sRGB" filterUnits="userSpaceOnUse"><feFlood flood-opacity="0" result="BackgroundImageFix"/><feColorMatrix in="SourceAlpha" result="hardAlpha" type="matrix" values="0 0 0 0 0 0 0 0 0 0 0 0 0 0 0 0 0 0 127 0"/><feOffset dy="10"/><feGaussianBlur stdDeviation="5"/><feColorMatrix type="matrix" values="0 0 0 0 0 0 0 0 0 0 0 0 0 0 0 0 0 0 0.3 0"/><feBlend in2="BackgroundImageFix" mode="normal" result="effect1_dropShadow_283_69"/><feBlend in="SourceGraphic" in2="effect1_dropShadow_283_69" mode="normal" result="shape"/><feColorMatrix in="SourceAlpha" result="hardAlpha" type="matrix" values="0 0 0 0 0 0 0 0 0 0 0 0 0 0 0 0 0 0 127 0"/><feOffset dy="4"/><feGaussianBlur stdDeviation="1"/><feComposite in2="hardAlpha" k2="-1" k3="1" operator="arithmetic"/><feColorMatrix type="matrix" values="0 0 0 0 0 0 0 0 0 0 0 0 0 0 0 0 0 0 1 0"/><feBlend in2="shape" mode="normal" result="effect2_innerShadow_283_69"/><feColorMatrix in="SourceAlpha" result="hardAlpha" type="matrix" values="0 0 0 0 0 0 0 0 0 0 0 0 0 0 0 0 0 0 127 0"/><feOffset dy="-3"/><feGaussianBlur stdDeviation="2"/><feComposite in2="hardAlpha" k2="-1" k3="1" operator="arithmetic"/><feColorMatrix type="matrix" values="0 0 0 0 0 0 0 0 0 0 0 0 0 0 0 0 0 0 0.25 0"/><feBlend in2="effect2_innerShadow_283_69" mode="normal" result="effect3_innerShadow_283_69"/></filter><linearGradient id="paint0_linear_283_69" x1="422" x2="422" y1="0" y2="824" gradientUnits="userSpaceOnUse"><stop stop-color="#141414"/><stop offset="1"/></linearGradient></defs></svg>