<?xml version="1.0" standalone="no"?>
<!DOCTYPE svg PUBLIC "-//W3C//DTD SVG 20010904//EN"
 "http://www.w3.org/TR/2001/REC-SVG-20010904/DTD/svg10.dtd">
<svg version="1.0" xmlns="http://www.w3.org/2000/svg"
 width="700.000000pt" height="700.000000pt" viewBox="0 0 700.000000 700.000000"
 preserveAspectRatio="xMidYMid meet">
<metadata>
Created by potrace 1.14, written by Peter Selinger 2001-2017
</metadata>
<g transform="translate(0.000000,700.000000) scale(0.100000,-0.100000)"
fill="#000000" stroke="none">
<path d="M1580 6989 c-539 -37 -919 -230 -1197 -605 -124 -168 -234 -435 -259
-627 -3 -23 -8 -55 -10 -72 -11 -74 -16 -140 -21 -275 -3 -80 -9 -153 -14
-162 -6 -10 -5 -19 1 -23 11 -7 9 -42 -2 -61 -4 -6 -4 -14 0 -18 11 -12 9
-110 -3 -118 -6 -5 -6 -8 0 -8 8 0 12 -93 5 -125 -1 -5 -2 -14 -1 -19 7 -34 6
-78 -1 -82 -5 -3 -6 -9 -3 -14 5 -9 9 -200 5 -225 -2 -10 0 -61 4 -118 1 -16
-1 -30 -6 -33 -5 -3 -6 -10 -2 -15 10 -16 11 -70 2 -75 -5 -3 -6 -9 -3 -14 5
-9 9 -200 5 -225 -2 -10 0 -61 4 -118 1 -16 -1 -30 -6 -33 -5 -3 -6 -10 -2
-15 10 -16 11 -70 2 -75 -5 -3 -6 -9 -3 -14 5 -9 9 -200 5 -225 -2 -10 0 -61
4 -118 1 -16 -1 -30 -6 -33 -5 -3 -6 -10 -2 -15 10 -16 11 -70 2 -75 -5 -3 -6
-9 -3 -14 5 -8 7 -89 5 -254 0 -27 2 -51 4 -54 3 -2 1 -15 -4 -28 -5 -13 -6
-24 -2 -24 4 0 6 -21 5 -47 -3 -50 -3 -81 0 -170 2 -29 -1 -53 -6 -53 -4 0 -5
-5 -1 -12 11 -18 12 -68 2 -68 -5 0 -6 -5 -2 -12 12 -19 11 -228 -1 -228 -7 0
-7 -3 0 -8 12 -8 13 -131 2 -149 -4 -6 -3 -14 3 -18 9 -5 9 -18 0 -60 -1 -5
-1 -12 0 -15 7 -16 5 -107 -3 -118 -5 -6 -6 -12 -1 -12 5 0 10 -25 10 -55 1
-37 -2 -52 -10 -48 -8 5 -8 2 0 -8 7 -8 14 -78 18 -169 4 -85 9 -171 11 -190
9 -67 13 -95 20 -125 4 -16 7 -39 7 -50 -1 -10 3 -24 7 -30 5 -5 8 -22 7 -37
-1 -16 2 -28 6 -28 4 0 8 -10 8 -23 0 -13 5 -28 12 -35 7 -7 9 -12 5 -12 -4 0
0 -17 8 -37 9 -20 13 -43 10 -50 -2 -8 -1 -12 4 -9 5 3 14 -9 21 -27 32 -82
95 -199 144 -265 22 -31 34 -57 30 -64 -4 -7 -4 -10 1 -6 14 13 37 -13 25 -28
-9 -10 -7 -11 9 -7 12 3 21 1 21 -4 0 -6 18 -28 40 -51 22 -22 40 -46 40 -53
0 -7 3 -10 6 -6 3 3 22 -10 42 -29 19 -19 39 -34 45 -34 5 0 7 -7 4 -14 -4
-10 -1 -13 7 -10 7 3 19 -3 27 -12 12 -15 12 -17 0 -9 -9 5 -12 4 -7 -3 4 -6
13 -9 21 -5 10 3 15 -1 16 -13 0 -11 3 -14 5 -7 4 8 11 7 24 -4 10 -9 16 -21
13 -26 -3 -6 -1 -7 6 -3 6 4 32 -6 57 -23 25 -17 52 -31 61 -31 10 0 13 -6 9
-16 -4 -9 -2 -13 5 -8 13 8 110 -36 104 -47 -3 -4 4 -5 15 -2 11 3 20 0 20 -6
0 -6 7 -8 17 -4 12 5 15 2 11 -8 -4 -10 3 -14 26 -15 38 -1 149 -34 157 -47 4
-5 9 -3 12 4 4 10 8 11 14 3 4 -6 31 -14 58 -18 28 -3 74 -9 102 -12 29 -4 50
-10 48 -14 -2 -4 4 -15 14 -24 14 -13 18 -14 18 -2 0 8 -3 14 -6 13 -3 -1 -6
3 -6 8 0 13 86 6 104 -9 12 -9 13 -8 6 4 -8 13 -7 13 8 1 9 -7 17 -10 17 -5 0
16 113 3 127 -15 12 -14 12 -14 7 3 -5 14 -3 17 12 14 10 -2 18 -10 16 -17 -1
-7 2 -10 8 -6 6 3 8 10 6 13 -2 4 20 7 50 7 30 0 54 -4 54 -10 0 -5 5 -3 10 5
8 12 10 12 10 1 0 -9 4 -10 12 -4 15 11 58 11 76 0 6 -5 12 -5 12 0 0 4 34 8
75 8 41 0 75 -4 75 -9 0 -5 6 -4 13 1 14 11 27 11 45 0 6 -5 12 -5 12 0 0 10
200 11 201 1 1 -5 2 -12 3 -17 3 -20 13 -20 12 0 -1 20 4 22 57 23 32 1 61 -3
64 -7 3 -5 9 -3 14 4 6 10 9 11 9 2 0 -7 5 -13 11 -13 5 0 7 6 3 12 -5 9 -2 9
9 -1 12 -9 17 -10 17 -2 0 14 31 11 43 -4 5 -7 10 -7 15 0 4 6 62 10 137 10
75 0 133 -4 137 -10 5 -7 8 -7 8 0 0 6 32 10 75 10 41 0 75 -4 75 -9 0 -5 6
-4 13 1 14 11 27 11 45 0 6 -5 12 -4 12 2 0 13 40 10 41 -4 1 -5 2 -18 2 -28
0 -10 2 -15 6 -12 3 4 6 16 6 27 0 19 6 21 68 22 55 1 66 -1 62 -13 -4 -11 -3
-12 10 -1 18 15 103 20 109 5 2 -5 5 -3 6 5 0 10 6 6 16 -10 14 -23 14 -24 9
-2 -7 23 12 28 28 7 5 -7 10 -7 15 0 9 13 42 16 42 3 0 -5 5 -6 12 -2 7 5 27
8 45 9 25 0 32 -3 28 -14 -4 -11 -3 -12 10 -1 18 15 105 20 105 5 0 -5 5 -3
10 5 7 11 10 11 10 2 0 -7 5 -10 11 -6 16 9 189 11 190 2 1 -5 2 -12 3 -17 3
-20 13 -20 12 0 -1 20 4 22 57 23 32 1 61 -3 64 -7 3 -5 9 -3 14 4 6 10 9 11
9 2 0 -7 5 -13 11 -13 5 0 7 6 3 13 -5 8 -2 8 9 -2 12 -9 17 -10 17 -2 0 14
31 11 43 -4 5 -7 10 -7 15 0 8 12 381 14 383 3 1 -5 2 -12 3 -17 3 -20 13 -20
12 0 -1 20 4 22 57 23 32 1 61 -3 64 -7 3 -5 9 -3 14 4 6 10 9 11 9 2 0 -7 5
-13 11 -13 5 0 7 6 3 13 -5 8 -2 8 9 -2 12 -9 17 -10 17 -2 0 14 31 11 43 -4
5 -7 10 -7 15 0 8 12 122 14 122 3 0 -5 5 -8 11 -8 5 0 8 4 5 9 -4 5 2 8 11 6
10 -1 17 -8 15 -15 -1 -6 2 -9 8 -5 6 3 8 10 6 13 -6 10 130 9 140 0 4 -5 12
-8 18 -8 6 0 4 5 -4 10 -10 7 10 10 65 10 82 1 187 9 194 16 2 2 11 -5 20 -14
9 -10 13 -13 9 -8 -15 19 -7 24 36 23 24 -1 42 1 39 6 -2 4 4 7 14 8 10 0 30
2 46 4 15 2 27 -1 27 -6 0 -5 5 -9 10 -9 6 0 9 5 8 11 -3 12 26 20 74 23 14 0
24 4 21 8 -2 5 5 8 17 8 13 0 19 -4 14 -12 -4 -7 -3 -8 5 -4 6 4 9 12 6 17 -4
5 -1 9 4 9 6 0 13 0 16 0 3 0 26 10 51 20 39 17 45 18 40 5 -3 -9 -2 -13 4
-10 6 3 10 13 10 21 0 8 3 13 8 12 4 -1 30 9 57 22 28 13 52 24 55 25 3 0 20
11 39 22 19 12 38 20 43 17 4 -3 8 -1 8 3 0 5 22 22 50 38 27 17 50 33 50 38
0 4 6 7 13 7 7 0 23 11 35 25 13 15 28 23 35 19 7 -4 9 -4 5 1 -7 7 14 35 27
35 3 0 4 -10 0 -22 -5 -20 -4 -21 5 -5 6 9 9 21 6 25 -7 12 22 45 34 37 6 -3
10 -3 9 2 -3 19 2 34 10 28 5 -3 12 4 16 15 4 11 10 18 15 15 5 -3 12 4 15 16
5 16 13 20 33 16 22 -4 24 -3 11 7 -15 10 -14 15 11 45 19 22 33 31 42 25 10
-6 11 -5 1 8 -11 12 -9 18 7 33 11 10 20 22 20 27 0 17 37 58 45 50 5 -4 5 1
2 10 -4 10 -2 18 4 18 6 0 8 4 4 9 -3 6 3 14 12 20 10 6 15 11 11 11 -4 0 4
23 18 50 16 32 30 48 37 44 9 -5 9 -4 0 6 -12 13 -6 43 7 35 5 -3 12 0 16 6 4
8 3 9 -4 5 -7 -4 -12 -1 -12 8 0 8 4 17 9 20 8 5 25 64 22 79 0 4 3 7 9 7 6 0
9 3 9 7 -1 5 0 13 1 18 1 6 3 15 5 20 1 6 3 18 3 28 1 12 6 15 15 11 9 -6 9
-5 0 8 -7 8 -9 18 -5 22 4 4 7 11 8 14 0 4 4 27 9 52 20 104 33 249 40 438 2
67 7 128 11 134 4 7 3 8 -5 4 -11 -7 -10 11 3 59 2 6 0 19 -4 30 -4 11 -4 32
1 48 4 15 4 27 -1 27 -4 0 -5 15 -1 33 5 18 5 41 1 52 -4 11 -4 31 0 45 4 14
3 40 -1 58 -4 17 -3 32 2 32 4 0 5 10 0 22 -4 13 -5 35 0 50 5 17 4 28 -2 28
-6 0 -7 5 -4 11 7 10 7 70 2 144 -1 17 1 42 4 56 4 15 3 32 -1 40 -5 7 -4 21
1 31 7 12 6 18 -1 18 -7 0 -8 6 -1 19 6 10 8 21 5 23 -7 7 -8 353 -1 365 3 5
2 15 -3 23 -5 8 -5 22 1 32 7 12 6 18 -1 18 -7 0 -8 6 -1 19 6 10 8 21 5 23
-7 7 -8 353 -1 365 3 5 2 15 -3 23 -5 8 -5 22 1 32 7 12 6 18 -1 18 -7 0 -8 6
-2 15 4 9 6 37 2 63 -3 26 -3 59 0 72 4 14 3 40 -1 58 -4 17 -3 32 2 32 4 0 5
10 0 22 -4 13 -5 35 0 50 4 16 4 28 -1 28 -4 0 -5 15 -1 33 5 18 5 41 1 52 -4
11 -4 31 0 45 4 14 3 40 -1 58 -4 17 -3 32 2 32 4 0 5 10 0 22 -4 13 -5 35 0
50 4 16 4 28 -1 28 -4 0 -5 15 -1 33 5 18 5 41 1 52 -4 11 -4 31 0 45 4 14 3
40 -1 58 -4 17 -3 32 2 32 4 0 5 10 0 22 -4 13 -5 35 0 50 4 16 4 28 -1 28 -4
0 -5 15 -1 33 5 18 5 41 1 52 -4 11 -4 31 0 45 4 14 3 40 -1 58 -4 17 -3 32 2
32 5 0 5 10 0 23 -4 12 -5 33 -1 47 4 14 3 37 -1 52 -4 15 -4 30 0 32 3 3 5
24 3 48 -4 53 -5 74 -2 113 1 17 -1 39 -3 50 -2 11 0 26 6 33 5 6 6 12 1 12
-5 0 -9 26 -9 58 -1 164 -39 472 -57 472 -5 0 -6 5 -3 10 14 23 -59 233 -126
359 -201 384 -564 653 -998 741 -220 44 -190 43 -2156 45 -1034 2 -1932 -1
-1995 -6z"/>
<path d="M470 606 c0 -2 7 -7 16 -10 8 -3 12 -2 9 4 -6 10 -25 14 -25 6z"/>
<path d="M535 560 c3 -5 8 -10 11 -10 2 0 4 5 4 10 0 6 -5 10 -11 10 -5 0 -7
-4 -4 -10z"/>
<path d="M6479 553 c-13 -16 -12 -17 4 -4 16 13 21 21 13 21 -2 0 -10 -8 -17
-17z"/>
<path d="M620 486 c0 -2 8 -10 18 -17 15 -13 16 -12 3 4 -13 16 -21 21 -21 13z"/>
<path d="M6356 473 c-6 -14 -5 -15 5 -6 7 7 10 15 7 18 -3 3 -9 -2 -12 -12z"/>
<path d="M6310 446 c0 -2 7 -7 16 -10 8 -3 12 -2 9 4 -6 10 -25 14 -25 6z"/>
<path d="M6270 419 c0 -5 5 -7 10 -4 6 3 10 8 10 11 0 2 -4 4 -10 4 -5 0 -10
-5 -10 -11z"/>
<path d="M6135 339 c-3 -4 2 -6 10 -5 21 3 28 13 10 13 -9 0 -18 -4 -20 -8z"/>
<path d="M890 321 c0 -6 4 -12 8 -15 5 -3 9 1 9 9 0 8 -4 15 -9 15 -4 0 -8 -4
-8 -9z"/>
<path d="M6056 287 c3 -10 9 -15 12 -12 3 3 0 11 -7 18 -10 9 -11 8 -5 -6z"/>
<path d="M990 266 c0 -2 7 -7 16 -10 8 -3 12 -2 9 4 -6 10 -25 14 -25 6z"/>
<path d="M5976 242 c-3 -4 4 -9 15 -9 23 -2 25 3 4 10 -8 4 -16 3 -19 -1z"/>
<path d="M1147 219 c7 -7 15 -10 18 -7 3 3 -2 9 -12 12 -14 6 -15 5 -6 -5z"/>
<path d="M1195 209 c-4 -6 -5 -12 -2 -15 2 -3 7 2 10 11 7 17 1 20 -8 4z"/>
<path d="M1030 206 c0 -2 7 -7 16 -10 8 -3 12 -2 9 4 -6 10 -25 14 -25 6z"/>
<path d="M1110 200 c0 -5 5 -10 11 -10 5 0 7 5 4 10 -3 6 -8 10 -11 10 -2 0
-4 -4 -4 -10z"/>
<path d="M5806 198 c3 -5 10 -6 15 -3 13 9 11 12 -6 12 -8 0 -12 -4 -9 -9z"/>
<path d="M1273 173 c0 -9 4 -10 14 -2 7 6 13 12 13 14 0 1 -6 2 -13 2 -8 0
-14 -6 -14 -14z"/>
<path d="M1347 179 c7 -7 15 -10 18 -7 3 3 -2 9 -12 12 -14 6 -15 5 -6 -5z"/>
<path d="M5666 178 c3 -4 9 -8 15 -8 5 0 9 4 9 8 0 5 -7 9 -15 9 -8 0 -12 -4
-9 -9z"/>
<path d="M5710 176 c0 -2 8 -10 18 -17 15 -13 16 -12 3 4 -13 16 -21 21 -21
13z"/>
<path d="M5456 158 c3 -5 10 -6 15 -3 13 9 11 12 -6 12 -8 0 -12 -4 -9 -9z"/>
<path d="M5494 158 c-4 -7 -4 -10 1 -6 4 4 15 2 24 -5 14 -11 14 -10 2 6 -16
20 -18 21 -27 5z"/>
<path d="M5626 158 c3 -5 10 -6 15 -3 13 9 11 12 -6 12 -8 0 -12 -4 -9 -9z"/>
<path d="M2189 143 c-13 -16 -12 -17 4 -4 16 13 21 21 13 21 -2 0 -10 -8 -17
-17z"/>
<path d="M3149 143 c-13 -16 -12 -17 4 -4 16 13 21 21 13 21 -2 0 -10 -8 -17
-17z"/>
<path d="M1376 142 c-3 -5 1 -9 9 -9 8 0 12 4 9 9 -3 4 -7 8 -9 8 -2 0 -6 -4
-9 -8z"/>
<path d="M1410 139 c0 -5 5 -7 10 -4 6 3 10 8 10 11 0 2 -4 4 -10 4 -5 0 -10
-5 -10 -11z"/>
<path d="M1820 146 c0 -2 8 -10 18 -17 15 -13 16 -12 3 4 -13 16 -21 21 -21
13z"/>
<path d="M2470 136 c7 -7 13 -7 20 0 6 6 3 10 -10 10 -13 0 -16 -4 -10 -10z"/>
<path d="M2706 142 c-3 -5 1 -9 9 -9 8 0 12 4 9 9 -3 4 -7 8 -9 8 -2 0 -6 -4
-9 -8z"/>
<path d="M3270 136 c7 -7 13 -7 20 0 6 6 3 10 -10 10 -13 0 -16 -4 -10 -10z"/>
<path d="M3400 135 c-7 -9 -11 -17 -9 -20 3 -2 10 5 17 15 14 24 10 26 -8 5z"/>
<path d="M3720 135 c-7 -9 -11 -17 -9 -20 3 -2 10 5 17 15 14 24 10 26 -8 5z"/>
<path d="M4070 136 c7 -7 13 -7 20 0 6 6 3 10 -10 10 -13 0 -16 -4 -10 -10z"/>
<path d="M4306 142 c-3 -5 1 -9 9 -9 8 0 12 4 9 9 -3 4 -7 8 -9 8 -2 0 -6 -4
-9 -8z"/>
<path d="M4710 136 c7 -7 13 -7 20 0 6 6 3 10 -10 10 -13 0 -16 -4 -10 -10z"/>
<path d="M4946 142 c-3 -5 1 -9 9 -9 8 0 12 4 9 9 -3 4 -7 8 -9 8 -2 0 -6 -4
-9 -8z"/>
<path d="M5276 133 c-6 -14 -5 -15 5 -6 7 7 10 15 7 18 -3 3 -9 -2 -12 -12z"/>
<path d="M1933 125 c0 -8 4 -12 9 -9 5 3 6 10 3 15 -9 13 -12 11 -12 -6z"/>
<path d="M2053 125 c0 -8 4 -12 9 -9 5 3 6 10 3 15 -9 13 -12 11 -12 -6z"/>
<path d="M2574 120 c0 -13 4 -16 10 -10 7 7 7 13 0 20 -6 6 -10 3 -10 -10z"/>
<path d="M2617 133 c-10 -9 -9 -23 1 -23 5 0 9 7 9 15 0 17 -1 18 -10 8z"/>
<path d="M3614 120 c0 -13 4 -16 10 -10 7 7 7 13 0 20 -6 6 -10 3 -10 -10z"/>
<path d="M3657 133 c-10 -9 -9 -23 1 -23 5 0 9 7 9 15 0 17 -1 18 -10 8z"/>
<path d="M4174 120 c0 -13 4 -16 10 -10 7 7 7 13 0 20 -6 6 -10 3 -10 -10z"/>
<path d="M4217 133 c-10 -9 -9 -23 1 -23 5 0 9 7 9 15 0 17 -1 18 -10 8z"/>
<path d="M4814 120 c0 -13 4 -16 10 -10 7 7 7 13 0 20 -6 6 -10 3 -10 -10z"/>
<path d="M4857 133 c-10 -9 -9 -23 1 -23 5 0 9 7 9 15 0 17 -1 18 -10 8z"/>
<path d="M5196 127 c3 -10 9 -15 12 -12 3 3 0 11 -7 18 -10 9 -11 8 -5 -6z"/>
<path d="M5456 127 c3 -10 9 -15 12 -12 3 3 0 11 -7 18 -10 9 -11 8 -5 -6z"/>
<path d="M1459 113 c-13 -16 -12 -17 4 -4 16 13 21 21 13 21 -2 0 -10 -8 -17
-17z"/>
<path d="M1859 113 c-13 -16 -12 -17 4 -4 16 13 21 21 13 21 -2 0 -10 -8 -17
-17z"/>
<path d="M2099 113 c-13 -16 -12 -17 4 -4 16 13 21 21 13 21 -2 0 -10 -8 -17
-17z"/>
<path d="M2130 120 c0 -5 5 -10 11 -10 5 0 7 5 4 10 -3 6 -8 10 -11 10 -2 0
-4 -4 -4 -10z"/>
<path d="M2501 116 c-9 -11 -9 -16 1 -22 7 -4 10 -4 6 1 -4 4 -3 14 3 22 6 7
9 13 6 13 -2 0 -10 -6 -16 -14z"/>
<path d="M3059 113 c-13 -16 -12 -17 4 -4 16 13 21 21 13 21 -2 0 -10 -8 -17
-17z"/>
<path d="M3090 120 c0 -5 5 -10 11 -10 5 0 7 5 4 10 -3 6 -8 10 -11 10 -2 0
-4 -4 -4 -10z"/>
<path d="M3299 113 c-13 -16 -12 -17 4 -4 16 13 21 21 13 21 -2 0 -10 -8 -17
-17z"/>
<path d="M3330 120 c0 -5 5 -10 11 -10 5 0 7 5 4 10 -3 6 -8 10 -11 10 -2 0
-4 -4 -4 -10z"/>
<path d="M3456 113 c-6 -14 -5 -15 5 -6 7 7 10 15 7 18 -3 3 -9 -2 -12 -12z"/>
<path d="M3776 113 c-6 -14 -5 -15 5 -6 7 7 10 15 7 18 -3 3 -9 -2 -12 -12z"/>
<path d="M4101 116 c-9 -11 -9 -16 1 -22 7 -4 10 -4 6 1 -4 4 -3 14 3 22 6 7
9 13 6 13 -2 0 -10 -6 -16 -14z"/>
<path d="M4741 116 c-9 -11 -9 -16 1 -22 7 -4 10 -4 6 1 -4 4 -3 14 3 22 6 7
9 13 6 13 -2 0 -10 -6 -16 -14z"/>
<path d="M5026 118 c3 -5 10 -6 15 -3 13 9 11 12 -6 12 -8 0 -12 -4 -9 -9z"/>
<path d="M5096 119 c4 -8 30 -6 38 2 3 3 -5 5 -19 5 -13 0 -22 -3 -19 -7z"/>
<path d="M1805 100 c-3 -6 1 -7 9 -4 18 7 21 14 7 14 -6 0 -13 -4 -16 -10z"/>
<path d="M2210 105 c0 -7 30 -13 34 -7 3 4 -4 9 -15 9 -10 1 -19 0 -19 -2z"/>
<path d="M2335 100 c-3 -5 -1 -10 4 -10 6 0 11 5 11 10 0 6 -2 10 -4 10 -3 0
-8 -4 -11 -10z"/>
<path d="M2690 105 c0 -7 30 -13 34 -7 3 4 -4 9 -15 9 -10 1 -19 0 -19 -2z"/>
<path d="M2815 100 c-3 -5 -1 -10 4 -10 6 0 11 5 11 10 0 6 -2 10 -4 10 -3 0
-8 -4 -11 -10z"/>
<path d="M3005 100 c-3 -6 1 -7 9 -4 18 7 21 14 7 14 -6 0 -13 -4 -16 -10z"/>
<path d="M3170 105 c0 -7 30 -13 34 -7 3 4 -4 9 -15 9 -10 1 -19 0 -19 -2z"/>
<path d="M3935 100 c-3 -5 -1 -10 4 -10 6 0 11 5 11 10 0 6 -2 10 -4 10 -3 0
-8 -4 -11 -10z"/>
<path d="M4290 105 c0 -7 30 -13 34 -7 3 4 -4 9 -15 9 -10 1 -19 0 -19 -2z"/>
<path d="M4415 100 c-3 -5 -1 -10 4 -10 6 0 11 5 11 10 0 6 -2 10 -4 10 -3 0
-8 -4 -11 -10z"/>
<path d="M4575 100 c-3 -5 -1 -10 4 -10 6 0 11 5 11 10 0 6 -2 10 -4 10 -3 0
-8 -4 -11 -10z"/>
<path d="M4930 105 c0 -7 30 -13 34 -7 3 4 -4 9 -15 9 -10 1 -19 0 -19 -2z"/>
<path d="M5055 100 c-3 -5 -1 -10 4 -10 6 0 11 5 11 10 0 6 -2 10 -4 10 -3 0
-8 -4 -11 -10z"/>
<path d="M5253 95 c0 -8 4 -12 9 -9 5 3 6 10 3 15 -9 13 -12 11 -12 -6z"/>
</g>
</svg>
