<?xml version="1.0" standalone="no"?>
<!DOCTYPE svg PUBLIC "-//W3C//DTD SVG 20010904//EN"
 "http://www.w3.org/TR/2001/REC-SVG-20010904/DTD/svg10.dtd">
<svg version="1.0" xmlns="http://www.w3.org/2000/svg"
 width="700.000000pt" height="700.000000pt" viewBox="0 0 700.000000 700.000000"
 preserveAspectRatio="xMidYMid meet">
<metadata>
Created by potrace 1.14, written by Peter Selinger 2001-2017
</metadata>
<g transform="translate(0.000000,700.000000) scale(0.100000,-0.100000)"
fill="#000000" stroke="none">
<path d="M1580 6989 c-539 -37 -919 -230 -1197 -606 -51 -69 -146 -243 -174
-318 -16 -44 -59 -215 -73 -290 -41 -224 -41 -247 -41 -2205 0 -2070 -1 -2014
60 -2269 135 -555 559 -964 1121 -1079 228 -47 207 -47 2234 -47 1804 0 1923
1 2050 18 257 35 446 96 627 203 361 212 605 570 682 1001 41 228 43 334 39
2288 -4 2052 -1 1939 -65 2197 -15 62 -27 119 -26 126 0 6 -3 12 -7 12 -8 0
-22 40 -25 71 -1 9 -25 60 -53 114 -205 389 -566 657 -1001 745 -220 44 -190
43 -2156 45 -1034 2 -1932 -1 -1995 -6z m102 -1798 c359 -130 1519 -561 1537
-571 11 -6 25 -19 31 -30 7 -12 10 -453 10 -1323 0 -1298 0 -1304 -20 -1330
-12 -15 -34 -28 -53 -31 -18 -3 -440 -15 -939 -27 -690 -17 -914 -19 -933 -11
-14 7 -30 22 -35 34 -10 24 -320 2849 -320 2914 1 43 13 64 47 82 17 10 62 7
214 -13 106 -14 198 -25 204 -25 7 0 9 49 7 165 l-4 164 30 31 c17 16 37 30
46 30 8 0 88 -27 178 -59z m3607 44 c16 -8 31 -22 35 -30 3 -9 6 -91 6 -181 0
-133 3 -164 14 -164 7 0 98 11 200 25 158 22 191 24 214 13 59 -29 65 59 -108
-1528 -158 -1449 -160 -1464 -184 -1489 l-25 -25 -918 23 c-509 12 -935 26
-956 32 -71 19 -67 -69 -67 1368 l0 1289 26 31 c14 17 31 31 37 31 7 0 386
139 842 309 457 171 836 310 843 310 7 1 26 -6 41 -14z"/>
</g>
</svg>
